<svg xmlns="http://www.w3.org/2000/svg" viewBox="0 0 1500 500" width="1500" height="500"><rect width="1500" height="500" fill="#1A1714"></rect><svg x="880" y="70" width="600" height="242.85714285714286" viewBox="0 0 420 170">
    <path d="M34,40 C84,52 108,64 128,70 C162,82 184,90 200,94 C216,98 224,100 234,102 C262,110 276,107 296,113 C332,124 358,134 386,140 C398,143 408,145 416,147" fill="none" stroke="#7FCAA6" stroke-opacity="0.18" stroke-width="5" stroke-linecap="round"></path>
    <circle cx="200" cy="94" r="8" fill="none" stroke="#7FCAA6" stroke-opacity="0.35" stroke-width="4"></circle></svg><svg x="90" y="66" width="66" height="60.4" viewBox="3 9 94 86"><path d="M18 14 H82 A12 12 0 0 1 94 26 V66 A12 12 0 0 1 82 78 H40 L24 92 V78 H18 A12 12 0 0 1 6 66 V26 A12 12 0 0 1 18 14 Z" fill="#F4F2EC"></path><path d="M22 60 C38 56 46 40 50 40 C56 40 62 34 78 26" fill="none" stroke="#1A1714" stroke-width="6.5" stroke-linecap="round"></path><circle cx="78" cy="26" r="7.5" fill="#7FCAA6"></circle></svg>
    <text x="174" y="116" font-size="50" font-weight="800" letter-spacing="-0.04em" fill="#F4F2EC">DeepBookie</text><g font-weight="800" letter-spacing="-0.03em" fill="#F4F2EC">
    <text x="90" y="262" font-size="72">Real odds. Priced live.</text>
    <text x="90" y="348" font-size="72"><tspan fill="#7FCAA6">You sign.</tspan> It holds no key.</text></g><circle cx="96" cy="430" r="6" fill="#2E9E6B"></circle><text x="114" y="437" font-size="22" font-weight="500" fill="#9a948a">live on DeepBook · Sui</text>
    <text x="90" y="478" font-size="0"></text><text x="640" y="478" font-size="40" font-weight="800" letter-spacing="-0.03em" fill="#F4F2EC" text-anchor="middle">deepbookie<tspan fill="#7FCAA6">.xyz</tspan></text></svg>